<svg width="33" height="32" viewBox="0 0 33 32" fill="none" xmlns="http://www.w3.org/2000/svg">
<path d="M0.333374 16C0.333374 7.16344 7.49682 0 16.3334 0C25.1699 0 32.3334 7.16344 32.3334 16C32.3334 24.8366 25.1699 32 16.3334 32C7.49682 32 0.333374 24.8366 0.333374 16Z" fill="#EEEEEE"/>
<path d="M15.8922 10.278C16.6362 10.278 17.2722 10.416 17.8002 10.692C18.3402 10.968 18.7482 11.34 19.0242 11.808C19.3122 12.276 19.4562 12.786 19.4562 13.338C19.4562 14.07 19.2402 14.676 18.8082 15.156C18.3882 15.624 17.8242 15.942 17.1162 16.11C17.9202 16.182 18.5742 16.47 19.0782 16.974C19.5822 17.478 19.8342 18.162 19.8342 19.026C19.8342 19.722 19.6662 20.352 19.3302 20.916C18.9942 21.48 18.5142 21.924 17.8902 22.248C17.2662 22.56 16.5462 22.716 15.7302 22.716C14.9982 22.716 14.3262 22.584 13.7142 22.32C13.1022 22.044 12.5682 21.636 12.1122 21.096L13.1022 20.178C13.4982 20.586 13.9002 20.886 14.3082 21.078C14.7282 21.27 15.1842 21.366 15.6762 21.366C16.4322 21.366 17.0262 21.156 17.4582 20.736C17.8902 20.304 18.1062 19.728 18.1062 19.008C18.1062 18.216 17.9022 17.658 17.4942 17.334C17.0862 17.01 16.4922 16.848 15.7122 16.848H14.8122L15.0102 15.57H15.6222C16.2462 15.57 16.7622 15.384 17.1702 15.012C17.5902 14.64 17.8002 14.118 17.8002 13.446C17.8002 12.882 17.6202 12.438 17.2602 12.114C16.9002 11.778 16.4142 11.61 15.8022 11.61C15.3342 11.61 14.9022 11.694 14.5062 11.862C14.1222 12.03 13.7262 12.306 13.3182 12.69L12.4542 11.7C13.4742 10.752 14.6202 10.278 15.8922 10.278Z" fill="#222831"/>
</svg>
