<svg width="33" height="32" viewBox="0 0 33 32" fill="none" xmlns="http://www.w3.org/2000/svg">
<path d="M0.666626 16C0.666626 7.16344 7.83007 0 16.6666 0C25.5032 0 32.6666 7.16344 32.6666 16C32.6666 24.8366 25.5032 32 16.6666 32C7.83007 32 0.666626 24.8366 0.666626 16Z" fill="#EEEEEE"/>
<path d="M16.3146 10.278C17.0346 10.278 17.6646 10.422 18.2046 10.71C18.7566 10.998 19.1826 11.394 19.4826 11.898C19.7826 12.39 19.9326 12.948 19.9326 13.572C19.9326 14.304 19.7646 15.006 19.4286 15.678C19.1046 16.35 18.6006 17.076 17.9166 17.856C17.2326 18.636 16.1946 19.722 14.8026 21.114H20.2206L20.0226 22.5H12.9126V21.186C14.5206 19.518 15.6606 18.3 16.3326 17.532C17.0046 16.752 17.4846 16.074 17.7726 15.498C18.0606 14.922 18.2046 14.304 18.2046 13.644C18.2046 13.02 18.0246 12.534 17.6646 12.186C17.3046 11.826 16.8246 11.646 16.2246 11.646C15.7326 11.646 15.3006 11.748 14.9286 11.952C14.5566 12.156 14.1606 12.492 13.7406 12.96L12.6606 12.096C13.1526 11.484 13.6986 11.028 14.2986 10.728C14.8986 10.428 15.5706 10.278 16.3146 10.278Z" fill="#222831"/>
</svg>
