<svg width="141" height="25" viewBox="0 0 141 25" fill="none" xmlns="http://www.w3.org/2000/svg">
<path d="M28.2303 11.5786C28.2019 11.4584 28.1443 11.347 28.0625 11.2545C27.9808 11.1619 27.8774 11.091 27.7616 11.048L22.3607 9.02203L23.735 2.14734C23.7662 1.98761 23.7445 1.82209 23.6733 1.67576C23.6021 1.52943 23.4852 1.41022 23.3403 1.33614C23.1954 1.26205 23.0304 1.2371 22.8701 1.26505C22.7097 1.293 22.5629 1.37234 22.4516 1.49109L11.9516 12.7411C11.8663 12.8309 11.8046 12.9405 11.772 13.0601C11.7394 13.1796 11.737 13.3053 11.7648 13.426C11.7927 13.5467 11.85 13.6587 11.9317 13.7518C12.0133 13.845 12.1168 13.9164 12.2328 13.9598L17.6357 15.9858L16.265 22.853C16.2339 23.0127 16.2556 23.1782 16.3268 23.3245C16.398 23.4709 16.5149 23.5901 16.6597 23.6642C16.8046 23.7382 16.9697 23.7632 17.13 23.7352C17.2903 23.7073 17.4372 23.628 17.5485 23.5092L28.0485 12.2592C28.1322 12.1693 28.1926 12.0603 28.2243 11.9416C28.256 11.8229 28.2581 11.6983 28.2303 11.5786ZM18.2535 20.5627L19.235 15.652C19.2702 15.4779 19.2423 15.2969 19.1565 15.1413C19.0706 14.9858 18.9324 14.8658 18.7663 14.8026L13.8125 12.9417L21.7457 4.44234L20.765 9.35296C20.7299 9.52712 20.7577 9.70809 20.8436 9.86364C20.9294 10.0192 21.0677 10.1392 21.2338 10.2023L26.1838 12.0586L18.2535 20.5627Z" fill="white"/>
<path d="M45.456 6.284C46.1173 6.284 46.672 6.36933 47.12 6.54C47.5787 6.71067 48.0427 6.988 48.512 7.372L47.68 8.348C47.008 7.804 46.2987 7.532 45.552 7.532C44.6347 7.532 43.8933 7.884 43.328 8.588C42.7733 9.292 42.496 10.4227 42.496 11.98C42.496 13.4947 42.7733 14.6147 43.328 15.34C43.8827 16.0547 44.6187 16.412 45.536 16.412C46.0053 16.412 46.416 16.332 46.768 16.172C47.12 16.012 47.4933 15.788 47.888 15.5L48.64 16.46C48.2987 16.812 47.8613 17.1053 47.328 17.34C46.7947 17.5747 46.1813 17.692 45.488 17.692C44.592 17.692 43.792 17.4733 43.088 17.036C42.3947 16.588 41.8507 15.9373 41.456 15.084C41.072 14.22 40.88 13.1853 40.88 11.98C40.88 10.7747 41.0827 9.74533 41.488 8.892C41.8933 8.028 42.4427 7.37733 43.136 6.94C43.8293 6.50267 44.6027 6.284 45.456 6.284ZM51.9969 17.692C51.4529 17.692 51.0209 17.532 50.7009 17.212C50.3915 16.8813 50.2369 16.4227 50.2369 15.836V5.676L51.7089 5.5V15.804C51.7089 16.0387 51.7462 16.2093 51.8209 16.316C51.9062 16.4227 52.0449 16.476 52.2369 16.476C52.4395 16.476 52.6209 16.444 52.7809 16.38L53.1649 17.404C52.8129 17.596 52.4235 17.692 51.9969 17.692ZM58.0943 8.876C59.2783 8.876 60.1956 9.27067 60.8463 10.06C61.5076 10.8493 61.8383 11.9213 61.8383 13.276C61.8383 14.1507 61.6889 14.924 61.3903 15.596C61.0916 16.2573 60.6596 16.7747 60.0943 17.148C59.5289 17.5107 58.8569 17.692 58.0783 17.692C56.8943 17.692 55.9716 17.2973 55.3103 16.508C54.6489 15.7187 54.3183 14.6467 54.3183 13.292C54.3183 12.4173 54.4676 11.6493 54.7663 10.988C55.0649 10.316 55.4969 9.79867 56.0623 9.436C56.6276 9.06267 57.3049 8.876 58.0943 8.876ZM58.0943 10.06C56.6329 10.06 55.9023 11.1373 55.9023 13.292C55.9023 15.436 56.6276 16.508 58.0783 16.508C59.5289 16.508 60.2543 15.4307 60.2543 13.276C60.2543 11.132 59.5343 10.06 58.0943 10.06ZM70.542 17.5H69.278L69.166 16.188C68.846 16.7107 68.478 17.0947 68.062 17.34C67.646 17.5747 67.1393 17.692 66.542 17.692C65.806 17.692 65.23 17.468 64.814 17.02C64.398 16.572 64.19 15.9373 64.19 15.116V9.068H65.662V14.956C65.662 15.532 65.7633 15.9427 65.966 16.188C66.1687 16.4227 66.4993 16.54 66.958 16.54C67.7793 16.54 68.4833 16.0547 69.07 15.084V9.068H70.542V17.5ZM80.1105 5.676V17.5H78.8145L78.6705 16.332C78.3932 16.7587 78.0465 17.0947 77.6305 17.34C77.2145 17.5747 76.7505 17.692 76.2385 17.692C75.2358 17.692 74.4518 17.2973 73.8865 16.508C73.3318 15.7187 73.0545 14.6573 73.0545 13.324C73.0545 12.46 73.1878 11.692 73.4545 11.02C73.7212 10.348 74.1052 9.82533 74.6065 9.452C75.1078 9.068 75.6945 8.876 76.3665 8.876C77.2305 8.876 77.9878 9.22267 78.6385 9.916V5.5L80.1105 5.676ZM76.5585 16.524C77.0065 16.524 77.3905 16.4227 77.7105 16.22C78.0305 16.0067 78.3398 15.692 78.6385 15.276V11.148C78.3612 10.7853 78.0625 10.5133 77.7425 10.332C77.4332 10.14 77.0812 10.044 76.6865 10.044C76.0358 10.044 75.5292 10.316 75.1665 10.86C74.8145 11.404 74.6385 12.2147 74.6385 13.292C74.6385 14.38 74.8038 15.1907 75.1345 15.724C75.4652 16.2573 75.9398 16.524 76.5585 16.524ZM85.945 6.284C86.681 6.284 87.3103 6.39067 87.833 6.604C88.3557 6.80667 88.8623 7.12667 89.353 7.564L88.521 8.492C88.105 8.16133 87.6943 7.92133 87.289 7.772C86.8943 7.612 86.4677 7.532 86.009 7.532C85.433 7.532 84.9583 7.66533 84.585 7.932C84.2117 8.19867 84.025 8.588 84.025 9.1C84.025 9.42 84.089 9.692 84.217 9.916C84.345 10.1293 84.5797 10.3267 84.921 10.508C85.273 10.6893 85.7797 10.8813 86.441 11.084C87.1343 11.2973 87.7103 11.5267 88.169 11.772C88.6277 12.0173 88.9957 12.3587 89.273 12.796C89.561 13.2227 89.705 13.7667 89.705 14.428C89.705 15.068 89.545 15.6333 89.225 16.124C88.9157 16.6147 88.4623 16.9987 87.865 17.276C87.2783 17.5533 86.5797 17.692 85.769 17.692C84.2437 17.692 82.9957 17.2173 82.025 16.268L82.857 15.34C83.305 15.7027 83.7583 15.98 84.217 16.172C84.6757 16.3533 85.1877 16.444 85.753 16.444C86.4357 16.444 87.001 16.2787 87.449 15.948C87.897 15.6067 88.121 15.116 88.121 14.476C88.121 14.1133 88.0517 13.8147 87.913 13.58C87.7743 13.3347 87.5343 13.116 87.193 12.924C86.8623 12.732 86.377 12.54 85.737 12.348C84.6063 12.0067 83.7797 11.596 83.257 11.116C82.7343 10.636 82.473 9.98533 82.473 9.164C82.473 8.60933 82.617 8.11333 82.905 7.676C83.2037 7.23867 83.6143 6.89733 84.137 6.652C84.6703 6.40667 85.273 6.284 85.945 6.284ZM95.7358 8.876C96.8131 8.876 97.6024 9.26 98.1038 10.028C98.6051 10.796 98.8558 11.8787 98.8558 13.276C98.8558 14.5987 98.5678 15.6653 97.9918 16.476C97.4158 17.2867 96.5998 17.692 95.5438 17.692C94.6051 17.692 93.8691 17.372 93.3358 16.732V20.732L91.8638 20.908V9.068H93.1278L93.2398 10.204C93.5491 9.77733 93.9224 9.452 94.3598 9.228C94.7971 8.99333 95.2558 8.876 95.7358 8.876ZM95.1918 16.492C96.5784 16.492 97.2718 15.42 97.2718 13.276C97.2718 11.1213 96.6371 10.044 95.3678 10.044C94.9518 10.044 94.5731 10.1667 94.2318 10.412C93.8904 10.6573 93.5918 10.972 93.3358 11.356V15.468C93.5491 15.7987 93.8158 16.0547 94.1358 16.236C94.4558 16.4067 94.8078 16.492 95.1918 16.492ZM105.332 8.876C106.1 8.876 106.697 9.10533 107.124 9.564C107.561 10.0227 107.78 10.652 107.78 11.452V17.5H106.308V11.66C106.308 11.0627 106.19 10.6413 105.956 10.396C105.732 10.1507 105.401 10.028 104.964 10.028C104.526 10.028 104.137 10.156 103.796 10.412C103.454 10.668 103.134 11.0307 102.836 11.5V17.5H101.364V5.692L102.836 5.532V10.236C103.497 9.32933 104.329 8.876 105.332 8.876ZM117.107 13.036C117.107 13.2813 117.096 13.532 117.075 13.788H111.699C111.763 14.716 111.997 15.3987 112.403 15.836C112.808 16.2733 113.331 16.492 113.971 16.492C114.376 16.492 114.749 16.4333 115.091 16.316C115.432 16.1987 115.789 16.012 116.163 15.756L116.803 16.636C115.907 17.34 114.925 17.692 113.859 17.692C112.685 17.692 111.768 17.308 111.107 16.54C110.456 15.772 110.131 14.716 110.131 13.372C110.131 12.4973 110.269 11.724 110.547 11.052C110.835 10.3693 111.24 9.836 111.763 9.452C112.296 9.068 112.92 8.876 113.635 8.876C114.755 8.876 115.613 9.244 116.211 9.98C116.808 10.716 117.107 11.7347 117.107 13.036ZM115.651 12.604C115.651 11.772 115.485 11.1373 115.155 10.7C114.824 10.2627 114.328 10.044 113.667 10.044C112.461 10.044 111.805 10.9293 111.699 12.7H115.651V12.604ZM123.122 8.876C123.42 8.876 123.698 8.908 123.954 8.972L123.682 10.412C123.426 10.348 123.18 10.316 122.946 10.316C122.423 10.316 122.002 10.508 121.682 10.892C121.362 11.276 121.111 11.8733 120.93 12.684V17.5H119.458V9.068H120.722L120.866 10.78C121.09 10.1507 121.394 9.676 121.778 9.356C122.162 9.036 122.61 8.876 123.122 8.876ZM131.513 13.036C131.513 13.2813 131.502 13.532 131.481 13.788H126.105C126.169 14.716 126.404 15.3987 126.809 15.836C127.214 16.2733 127.737 16.492 128.377 16.492C128.782 16.492 129.156 16.4333 129.497 16.316C129.838 16.1987 130.196 16.012 130.569 15.756L131.209 16.636C130.313 17.34 129.332 17.692 128.265 17.692C127.092 17.692 126.174 17.308 125.513 16.54C124.862 15.772 124.537 14.716 124.537 13.372C124.537 12.4973 124.676 11.724 124.953 11.052C125.241 10.3693 125.646 9.836 126.169 9.452C126.702 9.068 127.326 8.876 128.041 8.876C129.161 8.876 130.02 9.244 130.617 9.98C131.214 10.716 131.513 11.7347 131.513 13.036ZM130.057 12.604C130.057 11.772 129.892 11.1373 129.561 10.7C129.23 10.2627 128.734 10.044 128.073 10.044C126.868 10.044 126.212 10.9293 126.105 12.7H130.057V12.604Z" fill="#EEEEEE"/>
</svg>
