<svg width="33" height="32" viewBox="0 0 33 32" fill="none" xmlns="http://www.w3.org/2000/svg">
<path d="M21.3333 14C21.3333 14.2652 21.2279 14.5195 21.0404 14.7071C20.8528 14.8946 20.5985 15 20.3333 15H12.3333C12.068 15 11.8137 14.8946 11.6261 14.7071C11.4386 14.5195 11.3333 14.2652 11.3333 14C11.3333 13.7348 11.4386 13.4804 11.6261 13.2929C11.8137 13.1053 12.068 13 12.3333 13H20.3333C20.5985 13 20.8528 13.1053 21.0404 13.2929C21.2279 13.4804 21.3333 13.7348 21.3333 14ZM20.3333 17H12.3333C12.068 17 11.8137 17.1053 11.6261 17.2929C11.4386 17.4804 11.3333 17.7348 11.3333 18C11.3333 18.2652 11.4386 18.5195 11.6261 18.7071C11.8137 18.8946 12.068 19 12.3333 19H20.3333C20.5985 19 20.8528 18.8946 21.0404 18.7071C21.2279 18.5195 21.3333 18.2652 21.3333 18C21.3333 17.7348 21.2279 17.4804 21.0404 17.2929C20.8528 17.1053 20.5985 17 20.3333 17ZM29.3333 16C29.3337 18.2444 28.7531 20.4507 27.648 22.4042C26.5428 24.3576 24.9507 25.9917 23.0266 27.1473C21.1026 28.3029 18.9121 28.9406 16.6684 28.9985C14.4248 29.0564 12.2043 28.5324 10.2233 27.4775L5.967 28.8962C5.61461 29.0137 5.23645 29.0308 4.87491 28.9455C4.51337 28.8602 4.18274 28.6758 3.92007 28.4132C3.6574 28.1505 3.47307 27.8199 3.38775 27.4583C3.30243 27.0968 3.31948 26.7186 3.437 26.3662L4.85575 22.11C3.92844 20.3665 3.4105 18.4347 3.34125 16.4612C3.272 14.4877 3.65326 12.5243 4.45609 10.7201C5.25892 8.91597 6.46222 7.31841 7.97465 6.04872C9.48708 4.77902 11.2689 3.87057 13.1848 3.39232C15.1008 2.91407 17.1005 2.87859 19.0322 3.28856C20.9639 3.69854 22.7768 4.54321 24.3334 5.75844C25.8899 6.97368 27.1491 8.52754 28.0154 10.3021C28.8818 12.0766 29.3324 14.0252 29.3333 16ZM27.3333 16C27.3328 14.3126 26.9441 12.648 26.1974 11.1349C25.4506 9.6218 24.3658 8.30077 23.0268 7.27402C21.6878 6.24727 20.1305 5.54232 18.4755 5.21371C16.8204 4.88511 15.112 4.94165 13.4823 5.37897C11.8526 5.8163 10.3454 6.62267 9.07719 7.73572C7.80902 8.84876 6.8139 10.2386 6.16883 11.7978C5.52376 13.357 5.24602 15.0437 5.35712 16.7273C5.46821 18.411 5.96516 20.0466 6.8095 21.5075C6.88037 21.6301 6.92437 21.7664 6.93859 21.9074C6.95281 22.0483 6.93693 22.1906 6.892 22.325L5.33325 27L10.0083 25.4412C10.1101 25.4065 10.2169 25.3888 10.3245 25.3887C10.5001 25.389 10.6726 25.4356 10.8245 25.5237C12.4968 26.4913 14.3943 27.0013 16.3263 27.0025C18.2583 27.0037 20.1565 26.4961 21.83 25.5307C23.5034 24.5653 24.8931 23.1761 25.8592 21.5031C26.8253 19.83 27.3337 17.932 27.3333 16Z" fill="#008A90"/>
</svg>
